<svg width="155" height="155" viewBox="0 0 155 155" fill="none" xmlns="http://www.w3.org/2000/svg">
<rect width="155" height="155" rx="50" fill="#1C1C1C"/>
<path d="M47.4632 95.9447C51.2033 96.2467 54.7979 96.0337 59.8701 95.3083C65.1203 94.5533 70.2815 93.4612 75.1191 92.4095C77.724 91.8432 80.3289 91.2581 82.9257 90.6702C90.1363 89.0496 97.5896 87.3723 105.019 86.1292C109.74 85.3418 115.988 84.4331 122.457 84.4034H122.989C125.936 84.4034 128.565 84.5113 131 84.7351C126.192 82.5185 121.778 80.7846 117.504 79.4336C114.449 78.4737 110.409 77.36 106.221 77.3546C105.159 77.3519 104.663 76.6265 104.477 76.3569L100.087 70.0011C100.049 69.9444 99.8628 69.6694 99.8331 69.6101C99.6336 69.2056 99.6228 68.7283 99.8089 68.3049C99.968 67.9382 100.424 67.5229 100.804 67.4124C100.904 67.3827 101.003 67.3584 101.103 67.3396C106.267 66.385 112.407 65.363 118.814 65.0286C122.843 64.821 126.907 64.8965 130.981 65.2578C126.006 62.963 121.443 61.1806 116.983 59.7784C111.215 57.9636 106.011 57.4944 100.893 58.3303C94.9038 59.3038 88.5184 60.5146 80.7954 62.1379C76.9663 62.9415 73.1426 63.7774 69.3188 64.6133C62.146 66.18 54.725 67.8007 47.3742 69.1786C44.6399 69.6937 41.4553 70.2653 38.2383 70.5296C36.0163 70.7076 33.8132 70.5862 31.602 70.4622L30.7122 70.4109C28.2934 70.2815 25.7451 70.0469 23.0081 69.7098C24.2161 70.2492 25.4539 70.7696 26.7078 71.2658C35.1777 74.6176 42.3586 76.2868 49.3077 76.5187C50.4159 76.5537 50.9418 77.3249 51.1171 77.5811L55.8954 84.5059C55.9763 84.5976 56.0625 84.7081 56.13 84.8322C56.3349 85.1962 56.37 85.7894 56.2109 86.175C56.0167 86.6416 55.6041 87.0029 55.1107 87.1323C55.0729 87.1431 54.7952 87.2051 54.7574 87.2132L53.2204 87.5206C51.7265 87.8226 50.2353 88.1274 48.7387 88.4051C43.4265 89.4001 37.9093 90.4383 32.2654 90.015C29.1347 89.7857 26.0579 89.5404 23 89.1817C26.1685 90.6055 29.4043 91.8513 32.6834 92.9057C37.8634 94.5721 42.6984 95.5672 47.4632 95.9447ZM63.1087 76.0171C63.2839 75.591 63.8179 75.1623 64.2709 75.0814L65.1311 74.952C71.1903 73.8329 77.3115 72.4469 83.2304 71.1067L86.9004 70.2761C88.0761 70.0092 88.8473 70.3597 89.4487 71.2685C90.29 72.5331 91.1556 73.7817 92.0239 75.0275L93.2077 76.7425C93.4558 77.12 93.5528 77.7024 93.3749 78.1204C93.1591 78.6435 92.9488 79.1424 89.0604 79.9217C87.8712 80.159 86.6955 80.399 85.5225 80.6471C80.07 81.7985 74.6149 82.9607 69.1678 84.1499C68.909 84.2066 68.6771 84.2335 68.4559 84.2335C67.1913 84.2335 66.5926 83.3275 66.3958 83.0282C65.7756 82.0844 65.1365 81.1594 64.4893 80.2237C63.1949 78.3469 62.7284 76.9312 63.1087 76.0171ZM117.547 95.5213C121.869 96.9101 126.227 98.6197 130.987 100.82C130.072 100.742 129.096 100.669 128.031 100.615C123.986 100.391 119.893 100.434 115.98 100.774C111.782 101.138 107.378 101.75 102.123 102.713C95.6184 103.897 89.0658 105.369 82.7288 106.796C80.186 107.367 77.6404 107.939 75.0895 108.494C70.4649 109.5 65.0879 110.638 59.7784 111.399C54.8464 112.108 51.2681 112.316 47.5549 112.03C43.0247 111.679 38.4189 110.765 33.4788 109.236C29.9868 108.152 26.5136 106.836 23.0566 105.277C25.7316 105.609 28.2367 105.838 30.6286 105.973L31.4591 106.022C33.557 106.146 35.6577 106.264 37.7556 106.127C41.0022 105.914 44.1761 105.348 47.4147 104.738C54.9003 103.325 62.4615 101.672 69.7692 100.076C73.8437 99.186 77.9182 98.2961 82.0008 97.4413C88.4887 96.0822 94.8634 94.8876 100.931 93.8818C106.092 93.0324 111.426 93.5501 117.547 95.5213ZM31.5778 56.9821C28.679 56.0059 25.8206 54.8841 23.0027 53.6168C26.1577 53.9889 29.2533 54.237 32.1926 54.45C37.6693 54.8491 43.084 53.9242 48.1185 52.9642C55.3048 51.5916 62.5613 50.0088 69.5804 48.4771C73.8868 47.5387 78.1932 46.5976 82.5077 45.6997C89.0523 44.3379 95.0845 43.2053 100.95 42.2427C106.122 41.3905 111.45 41.911 117.506 43.8633C121.816 45.2466 126.265 46.9994 130.97 49.1701C128.492 48.9463 125.769 48.8384 122.649 48.8384C118.191 48.8465 113.343 49.2753 107.394 50.1867C99.3585 51.4191 91.3228 53.2231 83.554 54.9677L78.8997 56.0059C72.6653 57.3892 66.2178 58.8211 59.8108 59.7487C54.8545 60.466 51.2384 60.6791 47.4713 60.377C42.3721 59.9726 37.1704 58.8589 31.5778 56.9821Z" fill="white"/>
<path d="M136.5 67C136.5 1.00001 -16.5 106.5 27 18" stroke="white"/>
<path d="M136.5 102.5C136.5 36.5 -15.5 143.5 28 55" stroke="white"/>
</svg>
